<svg width="802" height="334" viewBox="0 0 802 334" fill="none" xmlns="http://www.w3.org/2000/svg">
<g clip-path="url(#clip0)">
<path d="M57.4887 289.325L39.0998 288.099L45.2294 315.683L66.07 307.101L57.4887 289.325Z" fill="#FFB9B9"/>
<path d="M226.054 237.836L183.147 196.154L158.628 215.156L110.204 273.388L115.72 281.969L174.565 242.127L214.408 294.229L252.412 275.227L226.054 237.836Z" fill="#2F2E41"/>
<path opacity="0.1" d="M226.054 237.836L183.147 196.154L158.628 215.156L110.204 273.388L115.72 281.969L174.565 242.127L214.408 294.229L252.412 275.227L226.054 237.836Z" fill="black"/>
<path d="M229.732 265.419L224.216 269.71L179.469 254.386L169.049 250.095L148.208 254.386C148.208 254.386 148.208 237.223 167.823 237.836L188.051 242.74L211.956 244.579L229.732 265.419Z" fill="#FFB9B9"/>
<path d="M269.575 310.779L256.09 319.361H240.153L165.984 291.777L57.4887 311.392L54.4235 288.099L153.724 244.579L240.766 273.388L269.575 310.779Z" fill="#2F2E41"/>
<path d="M182.534 201.671L173.339 203.51L171.336 201.172C169.75 199.322 168.745 197.044 168.447 194.625C168.149 192.206 168.572 189.753 169.662 187.573L195.406 153.859C195.406 153.859 202.762 137.309 214.408 144.052C226.055 150.795 204.601 161.828 204.601 161.828L191.728 182.056L192.954 192.476L182.534 201.671Z" fill="#FFB9B9"/>
<path d="M240.766 161.828C253.969 161.828 264.672 151.125 264.672 137.922C264.672 124.72 253.969 114.017 240.766 114.017C227.563 114.017 216.86 124.72 216.86 137.922C216.86 151.125 227.563 161.828 240.766 161.828Z" fill="#FFB9B9"/>
<path d="M230.039 155.392L241.072 181.749L267.43 170.716C267.43 170.716 258.848 149.875 258.848 149.262C258.848 148.649 230.039 155.392 230.039 155.392Z" fill="#FFB9B9"/>
<path d="M302.62 233.367C302.62 247.795 300.347 262.132 295.884 275.852L294.094 281.357L285.512 320.587L276.318 323.038L269.575 314.457L256.09 304.649L246.283 288.712L237.873 274.7L235.249 270.323L226.055 224.351L191.115 204.736L179.469 202.897L181.921 196.154L192.341 182.056L202.762 180.83L205.827 178.378L208.279 179.604L218.086 174.087L221.151 175.313L239.074 176.981L249.96 174.7L265.616 166.297L272.027 167.345L294.094 185.734C299.735 200.981 302.622 217.11 302.62 233.367Z" fill="#575A89"/>
<path d="M44.7443 298.817C44.7443 298.817 50.2345 289.512 47.9155 288.425C45.5966 287.339 35.7485 283.008 35.7485 283.008L21.3064 278.222C21.3064 278.222 0.467269 247.251 0.00984716 274.184C-0.447574 301.117 15.1833 307.591 15.1833 307.591C15.1833 307.591 29.1241 337.593 37.0209 332.809C44.9178 328.025 52.8198 311.785 52.8198 311.785C52.8198 311.785 38.5793 304.129 44.7443 298.817Z" fill="#2F2E41"/>
<path opacity="0.1" d="M295.933 228.028L272.64 243.353L237.873 274.7L235.249 270.323L227.893 233.545H229.732L248.735 198.606L295.933 228.028Z" fill="black"/>
<path d="M248.735 194.928L229.732 229.867H222.99L218.699 242.127L208.892 244.579L235.249 273.388L272.64 239.675L295.933 224.35L248.735 194.928Z" fill="#575A89"/>
<path d="M222.172 120.147L219.582 121.144C219.184 120.874 218.843 120.528 218.58 120.125C218.317 119.722 218.138 119.27 218.052 118.797C217.966 118.323 217.975 117.838 218.079 117.368C218.183 116.898 218.38 116.454 218.658 116.061L213.871 115.837C216.944 111.745 220.85 108.352 225.332 105.882C229.814 103.413 234.77 101.923 239.871 101.512C244.971 101.101 250.101 101.778 254.921 103.497C259.741 105.217 264.14 107.941 267.829 111.488C268.047 110.738 270.422 112.198 271.392 113.678C271.718 112.457 273.945 118.361 274.733 122.534C275.098 121.145 276.5 123.388 275.272 125.54C276.05 125.427 276.402 127.418 275.799 128.528C276.651 128.128 276.507 130.505 275.584 132.094C276.799 131.986 266 148.747 261.627 158.542C260.358 152.708 258.93 146.566 254.836 142.22C254.14 141.482 253.378 140.809 252.618 140.137L248.503 136.505C243.718 132.281 239.365 127.069 232.991 125.49C228.611 124.405 225.841 124.16 228.228 119.224C226.071 120.124 224.057 121.463 221.881 122.299C221.91 121.609 222.214 120.837 222.172 120.147Z" fill="#2F2E41"/>
<path d="M252.719 144.971C255.088 144.971 257.009 143.05 257.009 140.681C257.009 138.311 255.088 136.39 252.719 136.39C250.349 136.39 248.428 138.311 248.428 140.681C248.428 143.05 250.349 144.971 252.719 144.971Z" fill="#FFB9B9"/>
<path d="M152.955 44.2404H132.209V64.9862H152.955V44.2404Z" fill="#4E67EB"/>
<path d="M165.55 53.1314H140.359V27.9402H165.55V53.1314ZM141.454 52.0362H164.455V29.0355H141.454V52.0362Z" fill="#3F3D56"/>
<path d="M60.2618 128.309L54.5655 108.36L34.6172 114.057L40.3135 134.005L60.2618 128.309Z" fill="#4E67EB"/>
<path d="M55.171 142.862L48.2541 118.638L72.4771 111.721L79.394 135.945L55.171 142.862ZM49.608 119.391L55.9235 141.508L78.0401 135.192L71.7247 113.075L49.608 119.391Z" fill="#3F3D56"/>
<path d="M55.1062 35.3988L69.2714 20.2419L54.1144 6.07666L39.9493 21.2336L55.1062 35.3988Z" fill="#4E67EB"/>
<path d="M40.0101 38.5305L57.2107 20.1256L75.6155 37.3262L58.415 55.7311L40.0101 38.5305ZM57.263 21.6737L41.5581 38.4781L58.3626 54.183L74.0675 37.3785L57.263 21.6737Z" fill="#3F3D56"/>
<path d="M760.355 3.97305H567.59V0H480.183V3.97305H286.624C284.912 3.97305 283.216 4.31031 281.634 4.96558C280.052 5.62086 278.615 6.58131 277.404 7.7921C276.193 9.00289 275.233 10.4403 274.577 12.0223C273.922 13.6043 273.585 15.2998 273.585 17.0121V280.966C273.585 282.679 273.922 284.374 274.577 285.956C275.233 287.538 276.193 288.976 277.404 290.186C278.615 291.397 280.052 292.358 281.634 293.013C283.216 293.668 284.912 294.005 286.624 294.005H760.355C763.813 294.005 767.13 292.632 769.575 290.186C772.02 287.741 773.394 284.424 773.394 280.966V17.0121C773.394 15.2998 773.057 13.6043 772.402 12.0223C771.746 10.4403 770.786 9.00289 769.575 7.7921C768.364 6.58131 766.927 5.62086 765.345 4.96558C763.763 4.31031 762.067 3.97305 760.355 3.97305Z" fill="#3F3D56"/>
<path d="M755.913 27.0167H291.066V289.238H755.913V27.0167Z" fill="#4E67EB"/>
<path d="M523.092 19.8652C525.725 19.8652 527.86 17.7307 527.86 15.0976C527.86 12.4645 525.725 10.3299 523.092 10.3299C520.459 10.3299 518.325 12.4645 518.325 15.0976C518.325 17.7307 520.459 19.8652 523.092 19.8652Z" fill="#4E67EB"/>
<path opacity="0.1" d="M622.975 289.238H291.066V27.0169L622.975 289.238Z" fill="black"/>
<path d="M363.801 269.616C388.478 269.616 408.483 249.611 408.483 224.933C408.483 200.256 388.478 180.251 363.801 180.251C339.123 180.251 319.118 200.256 319.118 224.933C319.118 249.611 339.123 269.616 363.801 269.616Z" fill="#F2F2F2"/>
<path d="M373.748 258.516C362.755 258.516 352.009 255.257 342.869 249.149C333.729 243.042 326.605 234.362 322.398 224.206C318.191 214.049 317.09 202.874 319.235 192.093C321.38 181.311 326.673 171.407 334.446 163.634C342.219 155.861 352.123 150.568 362.904 148.423C373.686 146.278 384.861 147.379 395.017 151.586C405.174 155.793 413.854 162.917 419.961 172.057C426.069 181.197 429.328 191.943 429.328 202.936C429.312 217.672 423.45 231.799 413.031 242.219C402.611 252.639 388.483 258.5 373.748 258.516ZM373.748 148.082C362.899 148.082 352.293 151.299 343.272 157.326C334.252 163.354 327.221 171.921 323.069 181.944C318.917 191.967 317.831 202.997 319.948 213.637C322.064 224.278 327.288 234.052 334.96 241.723C342.631 249.395 352.406 254.619 363.046 256.736C373.687 258.852 384.716 257.766 394.739 253.614C404.763 249.463 413.33 242.432 419.357 233.411C425.385 224.39 428.602 213.785 428.602 202.936C428.585 188.393 422.801 174.45 412.517 164.166C402.234 153.883 388.291 148.098 373.748 148.082Z" fill="#3F3D56"/>
<path d="M674.975 168.435H631.554V177.508H674.975V168.435Z" fill="#3F3D56"/>
<path d="M727.47 97.7933H579.059V101.682H727.47V97.7933Z" fill="#3F3D56"/>
<path d="M727.47 110.107H579.059V113.995H727.47V110.107Z" fill="#3F3D56"/>
<path d="M727.47 122.421H579.059V126.309H727.47V122.421Z" fill="#3F3D56"/>
<path d="M727.47 134.734H579.059V138.623H727.47V134.734Z" fill="#3F3D56"/>
<path d="M727.47 147.048H579.059V150.936H727.47V147.048Z" fill="#3F3D56"/>
<path d="M727.47 32.3366H709.324V50.483H727.47V32.3366Z" fill="#F2F2F2"/>
<path d="M735.895 58.9082H713.86V36.8732H735.895V58.9082ZM714.818 57.9501H734.937V37.8313H714.818V57.9501Z" fill="#3F3D56"/>
<path d="M786.446 284.47H741.08V281.201C741.08 281.116 741.063 281.032 741.031 280.953C740.998 280.875 740.95 280.803 740.89 280.743C740.83 280.683 740.759 280.635 740.68 280.603C740.601 280.57 740.517 280.553 740.432 280.553H724.878C724.793 280.553 724.708 280.57 724.63 280.603C724.551 280.635 724.48 280.683 724.42 280.743C724.359 280.803 724.312 280.875 724.279 280.953C724.247 281.032 724.23 281.116 724.23 281.201V284.47H714.508V281.201C714.508 281.116 714.492 281.032 714.459 280.953C714.427 280.875 714.379 280.803 714.319 280.743C714.258 280.683 714.187 280.635 714.108 280.603C714.03 280.57 713.945 280.553 713.86 280.553H698.306C698.221 280.553 698.137 280.57 698.058 280.603C697.98 280.635 697.908 280.683 697.848 280.743C697.788 280.803 697.74 280.875 697.708 280.953C697.675 281.032 697.658 281.116 697.658 281.201V284.47H687.937V281.201C687.937 281.116 687.92 281.032 687.888 280.953C687.855 280.875 687.807 280.803 687.747 280.743C687.687 280.683 687.616 280.635 687.537 280.603C687.458 280.57 687.374 280.553 687.289 280.553H671.735C671.65 280.553 671.565 280.57 671.487 280.603C671.408 280.635 671.337 280.683 671.277 280.743C671.216 280.803 671.169 280.875 671.136 280.953C671.104 281.032 671.087 281.116 671.087 281.201V284.47H661.365V281.201C661.365 281.116 661.349 281.032 661.316 280.953C661.284 280.875 661.236 280.803 661.176 280.743C661.116 280.683 661.044 280.635 660.965 280.603C660.887 280.57 660.803 280.553 660.717 280.553H645.163C645.078 280.553 644.994 280.57 644.915 280.603C644.837 280.635 644.765 280.683 644.705 280.743C644.645 280.803 644.597 280.875 644.565 280.953C644.532 281.032 644.515 281.116 644.515 281.201V284.47H634.794V281.201C634.794 281.116 634.777 281.032 634.745 280.953C634.712 280.875 634.664 280.803 634.604 280.743C634.544 280.683 634.473 280.635 634.394 280.603C634.315 280.57 634.231 280.553 634.146 280.553H618.592C618.507 280.553 618.422 280.57 618.344 280.603C618.265 280.635 618.194 280.683 618.134 280.743C618.073 280.803 618.026 280.875 617.993 280.953C617.96 281.032 617.944 281.116 617.944 281.201V284.47H608.222V281.201C608.222 281.116 608.206 281.032 608.173 280.953C608.141 280.875 608.093 280.803 608.033 280.743C607.972 280.683 607.901 280.635 607.822 280.603C607.744 280.57 607.66 280.553 607.574 280.553H592.02C591.935 280.553 591.851 280.57 591.772 280.603C591.694 280.635 591.622 280.683 591.562 280.743C591.502 280.803 591.454 280.875 591.422 280.953C591.389 281.032 591.372 281.116 591.372 281.201V284.47H581.651V281.201C581.651 281.116 581.634 281.032 581.602 280.953C581.569 280.875 581.521 280.803 581.461 280.743C581.401 280.683 581.33 280.635 581.251 280.603C581.172 280.57 581.088 280.553 581.003 280.553H459.163C459.078 280.553 458.993 280.57 458.915 280.603C458.836 280.635 458.765 280.683 458.705 280.743C458.644 280.803 458.597 280.875 458.564 280.953C458.531 281.032 458.515 281.116 458.515 281.201V284.47H448.793V281.201C448.793 281.116 448.777 281.032 448.744 280.953C448.712 280.875 448.664 280.803 448.604 280.743C448.543 280.683 448.472 280.635 448.393 280.603C448.315 280.57 448.23 280.553 448.145 280.553H432.591C432.506 280.553 432.422 280.57 432.343 280.603C432.265 280.635 432.193 280.683 432.133 280.743C432.073 280.803 432.025 280.875 431.993 280.953C431.96 281.032 431.943 281.116 431.943 281.201V284.47H422.222V281.201C422.222 281.116 422.205 281.032 422.173 280.953C422.14 280.875 422.092 280.803 422.032 280.743C421.972 280.683 421.9 280.635 421.822 280.603C421.743 280.57 421.659 280.553 421.574 280.553H406.02C405.935 280.553 405.85 280.57 405.772 280.603C405.693 280.635 405.622 280.683 405.562 280.743C405.501 280.803 405.454 280.875 405.421 280.953C405.388 281.032 405.372 281.116 405.372 281.201V284.47H395.65V281.201C395.65 281.116 395.634 281.032 395.601 280.953C395.569 280.875 395.521 280.803 395.461 280.743C395.4 280.683 395.329 280.635 395.25 280.603C395.172 280.57 395.087 280.553 395.002 280.553H379.448C379.363 280.553 379.279 280.57 379.2 280.603C379.122 280.635 379.05 280.683 378.99 280.743C378.93 280.803 378.882 280.875 378.85 280.953C378.817 281.032 378.8 281.116 378.8 281.201V284.47H369.079V281.201C369.079 281.116 369.062 281.032 369.03 280.953C368.997 280.875 368.949 280.803 368.889 280.743C368.829 280.683 368.757 280.635 368.679 280.603C368.6 280.57 368.516 280.553 368.431 280.553H352.877C352.792 280.553 352.707 280.57 352.629 280.603C352.55 280.635 352.479 280.683 352.419 280.743C352.358 280.803 352.311 280.875 352.278 280.953C352.245 281.032 352.229 281.116 352.229 281.201V284.47H342.507V281.201C342.507 281.116 342.491 281.032 342.458 280.953C342.426 280.875 342.378 280.803 342.318 280.743C342.257 280.683 342.186 280.635 342.107 280.603C342.029 280.57 341.944 280.553 341.859 280.553H326.305C326.22 280.553 326.136 280.57 326.057 280.603C325.979 280.635 325.907 280.683 325.847 280.743C325.787 280.803 325.739 280.875 325.707 280.953C325.674 281.032 325.657 281.116 325.657 281.201V284.47H315.936V281.201C315.936 281.116 315.919 281.032 315.887 280.953C315.854 280.875 315.806 280.803 315.746 280.743C315.686 280.683 315.614 280.635 315.536 280.603C315.457 280.57 315.373 280.553 315.288 280.553H299.734C299.649 280.553 299.564 280.57 299.486 280.603C299.407 280.635 299.336 280.683 299.276 280.743C299.215 280.803 299.168 280.875 299.135 280.953C299.102 281.032 299.086 281.116 299.086 281.201V284.47H269.274C265.149 284.47 261.192 286.109 258.275 289.026C255.358 291.943 253.72 295.899 253.72 300.024V307.057C253.72 311.182 255.358 315.139 258.275 318.056C261.192 320.973 265.149 322.611 269.274 322.611H786.446C790.571 322.611 794.527 320.973 797.444 318.056C800.361 315.139 802 311.182 802 307.057V300.024C802 295.899 800.361 291.943 797.444 289.026C794.527 286.109 790.571 284.47 786.446 284.47Z" fill="#3F3D56"/>
</g>
<defs>
<clipPath id="clip0">
<rect width="802" height="333.326" fill="white"/>
</clipPath>
</defs>
</svg>
