<svg width="140" height="18" viewBox="0 0 140 18" fill="none" xmlns="http://www.w3.org/2000/svg">
<path d="M15.543 17V9.34082C15.543 8.20215 15.321 7.37142 14.877 6.84863C14.4329 6.32585 13.7526 6.06445 12.8359 6.06445C11.64 6.06445 10.7555 6.39388 10.1826 7.05273C9.6097 7.71159 9.32324 8.74642 9.32324 10.1572V17H8.23828V9.01855C8.23828 7.04915 7.33594 6.06445 5.53125 6.06445C4.30664 6.06445 3.41504 6.42253 2.85645 7.13867C2.29785 7.84766 2.01855 8.98633 2.01855 10.5547V17H0.955078V5.32324H1.83594L2.06152 6.92383H2.12598C2.44824 6.34375 2.90658 5.89616 3.50098 5.58105C4.09538 5.25879 4.75065 5.09766 5.4668 5.09766C7.30729 5.09766 8.48893 5.78874 9.01172 7.1709H9.05469C9.43424 6.50488 9.94271 5.99284 10.5801 5.63477C11.2246 5.27669 11.9551 5.09766 12.7715 5.09766C14.0462 5.09766 15.0023 5.43783 15.6396 6.11816C16.277 6.7985 16.5957 7.87988 16.5957 9.3623V17H15.543ZM21.4404 17H20.377V5.32324H21.4404V17ZM20.2266 2.0791C20.2266 1.3916 20.4521 1.04785 20.9033 1.04785C21.1253 1.04785 21.2972 1.13737 21.4189 1.31641C21.5479 1.49544 21.6123 1.74967 21.6123 2.0791C21.6123 2.40137 21.5479 2.6556 21.4189 2.8418C21.2972 3.02799 21.1253 3.12109 20.9033 3.12109C20.4521 3.12109 20.2266 2.77376 20.2266 2.0791ZM26.4033 11.876L32.3652 5.32324H33.6543L29.0566 10.3076L34.0518 17H32.7734L28.3369 11.1025L26.4248 12.8428V17H25.3613V0.285156H26.4248V8.66406L26.3496 11.876H26.4033ZM43.1074 17L42.8389 15.1523H42.7529C42.1657 15.9043 41.5605 16.4378 40.9375 16.7529C40.3216 17.0609 39.5911 17.2148 38.7461 17.2148C37.6003 17.2148 36.7087 16.9212 36.0713 16.334C35.4339 15.7467 35.1152 14.9339 35.1152 13.8955C35.1152 12.7568 35.5879 11.8724 36.5332 11.2422C37.4857 10.612 38.8607 10.279 40.6582 10.2432L42.8818 10.1787V9.40527C42.8818 8.29525 42.6562 7.45736 42.2051 6.8916C41.7539 6.32585 41.027 6.04297 40.0244 6.04297C38.943 6.04297 37.8223 6.34375 36.6621 6.94531L36.2646 6.02148C37.5465 5.41992 38.8141 5.11914 40.0674 5.11914C41.3493 5.11914 42.3053 5.45215 42.9355 6.11816C43.5729 6.78418 43.8916 7.82259 43.8916 9.2334V17H43.1074ZM38.8105 16.248C40.0566 16.248 41.0378 15.8936 41.7539 15.1846C42.4772 14.4684 42.8389 13.4766 42.8389 12.209V11.0596L40.7979 11.1455C39.1579 11.2243 37.987 11.4821 37.2852 11.9189C36.5905 12.3486 36.2432 13.0218 36.2432 13.9385C36.2432 14.6689 36.4652 15.2383 36.9092 15.6465C37.3604 16.0475 37.9941 16.248 38.8105 16.248ZM52.3994 17.2148C50.7021 17.2148 49.3773 16.6921 48.4248 15.6465C47.4795 14.6009 47.0068 13.1364 47.0068 11.2529C47.0068 9.39095 47.4652 7.90137 48.3818 6.78418C49.2985 5.65983 50.5339 5.09766 52.0879 5.09766C53.4629 5.09766 54.5479 5.57747 55.3428 6.53711C56.1377 7.49674 56.5352 8.80013 56.5352 10.4473V11.3066H48.124C48.1383 12.9108 48.5107 14.1354 49.2412 14.9805C49.9788 15.8255 51.0316 16.248 52.3994 16.248C53.0654 16.248 53.6491 16.2015 54.1504 16.1084C54.6589 16.0153 55.2998 15.8148 56.0732 15.5068V16.4736C55.4144 16.7601 54.8057 16.9535 54.2471 17.0537C53.6885 17.1611 53.0726 17.2148 52.3994 17.2148ZM52.0879 6.04297C50.9635 6.04297 50.0612 6.41536 49.3809 7.16016C48.7005 7.89779 48.3031 8.96484 48.1885 10.3613H55.4072C55.4072 9.00781 55.1136 7.9515 54.5264 7.19238C53.9391 6.42611 53.1263 6.04297 52.0879 6.04297ZM60.8213 17H59.7578V0.285156H60.8213V17ZM72.5732 13.6162C72.5732 14.7764 72.1507 15.668 71.3057 16.291C70.4606 16.9069 69.2503 17.2148 67.6748 17.2148C66.0921 17.2148 64.821 16.9749 63.8613 16.4951V14.3145C65.2578 14.959 66.5576 15.2812 67.7607 15.2812C69.3148 15.2812 70.0918 14.8122 70.0918 13.874C70.0918 13.5732 70.0059 13.3226 69.834 13.1221C69.6621 12.9215 69.3792 12.7139 68.9854 12.499C68.5915 12.2842 68.0436 12.0407 67.3418 11.7686C65.974 11.2386 65.0465 10.7087 64.5596 10.1787C64.0798 9.64876 63.8398 8.96126 63.8398 8.11621C63.8398 7.09928 64.248 6.31152 65.0645 5.75293C65.888 5.18717 67.0052 4.9043 68.416 4.9043C69.8125 4.9043 71.1338 5.18717 72.3799 5.75293L71.5635 7.6543C70.2816 7.12435 69.2038 6.85938 68.3301 6.85938C66.998 6.85938 66.332 7.23893 66.332 7.99805C66.332 8.37044 66.5039 8.68555 66.8477 8.94336C67.1986 9.20117 67.9577 9.55566 69.125 10.0068C70.1061 10.3864 70.8187 10.7337 71.2627 11.0488C71.7067 11.3639 72.0361 11.7292 72.251 12.1445C72.4658 12.5527 72.5732 13.0433 72.5732 13.6162ZM82.7461 17L82.2412 15.3457H82.1553C81.5824 16.069 81.0059 16.5632 80.4258 16.8281C79.8457 17.0859 79.1009 17.2148 78.1914 17.2148C77.0241 17.2148 76.111 16.8997 75.4521 16.2695C74.8005 15.6393 74.4746 14.7477 74.4746 13.5947C74.4746 12.3701 74.9294 11.4463 75.8389 10.8232C76.7484 10.2002 78.1341 9.86003 79.9961 9.80273L82.0479 9.73828V9.10449C82.0479 8.34538 81.8688 7.77962 81.5107 7.40723C81.1598 7.02767 80.612 6.83789 79.8672 6.83789C79.2585 6.83789 78.6748 6.92741 78.1162 7.10645C77.5576 7.28548 77.0205 7.49674 76.5049 7.74023L75.6885 5.93555C76.333 5.59896 77.0384 5.34473 77.8047 5.17285C78.571 4.99382 79.2943 4.9043 79.9746 4.9043C81.4857 4.9043 82.6243 5.23372 83.3906 5.89258C84.1641 6.55143 84.5508 7.58626 84.5508 8.99707V17H82.7461ZM78.9863 15.2812C79.903 15.2812 80.637 15.027 81.1885 14.5186C81.7471 14.0029 82.0264 13.2832 82.0264 12.3594V11.3281L80.501 11.3926C79.3122 11.4355 78.4456 11.6361 77.9014 11.9941C77.3643 12.3451 77.0957 12.8857 77.0957 13.6162C77.0957 14.1462 77.2533 14.5579 77.5684 14.8516C77.8835 15.138 78.3561 15.2812 78.9863 15.2812ZM98.5264 17H95.9912V9.69531C95.9912 8.77865 95.805 8.09473 95.4326 7.64355C95.0674 7.19238 94.4837 6.9668 93.6816 6.9668C92.6146 6.9668 91.834 7.2819 91.3398 7.91211C90.8457 8.54232 90.5986 9.59863 90.5986 11.0811V17H88.0742V5.11914H90.0508L90.4053 6.67676H90.5342C90.8923 6.111 91.4007 5.67415 92.0596 5.36621C92.7184 5.05827 93.4489 4.9043 94.251 4.9043C97.1012 4.9043 98.5264 6.35449 98.5264 9.25488V17ZM106.465 15.1738C107.081 15.1738 107.697 15.0771 108.312 14.8838V16.7852C108.033 16.9069 107.672 17.0072 107.228 17.0859C106.791 17.1719 106.336 17.2148 105.863 17.2148C103.471 17.2148 102.275 15.9544 102.275 13.4336V7.03125H100.653V5.91406L102.394 4.99023L103.253 2.47656H104.811V5.11914H108.194V7.03125H104.811V13.3906C104.811 13.9993 104.961 14.4505 105.262 14.7441C105.57 15.0306 105.971 15.1738 106.465 15.1738ZM113.222 17H110.697V5.11914H113.222V17ZM110.547 1.97168C110.547 1.52051 110.669 1.17318 110.912 0.929688C111.163 0.686198 111.517 0.564453 111.976 0.564453C112.42 0.564453 112.763 0.686198 113.007 0.929688C113.257 1.17318 113.383 1.52051 113.383 1.97168C113.383 2.40137 113.257 2.74154 113.007 2.99219C112.763 3.23568 112.42 3.35742 111.976 3.35742C111.517 3.35742 111.163 3.23568 110.912 2.99219C110.669 2.74154 110.547 2.40137 110.547 1.97168ZM119.366 17H116.842V0.285156H119.366V17ZM125.511 17H122.986V5.11914H125.511V17ZM122.836 1.97168C122.836 1.52051 122.958 1.17318 123.201 0.929688C123.452 0.686198 123.806 0.564453 124.265 0.564453C124.709 0.564453 125.052 0.686198 125.296 0.929688C125.547 1.17318 125.672 1.52051 125.672 1.97168C125.672 2.40137 125.547 2.74154 125.296 2.99219C125.052 3.23568 124.709 3.35742 124.265 3.35742C123.806 3.35742 123.452 3.23568 123.201 2.99219C122.958 2.74154 122.836 2.40137 122.836 1.97168ZM139.669 11.0381C139.669 12.9788 139.171 14.4935 138.176 15.582C137.18 16.6706 135.795 17.2148 134.019 17.2148C132.909 17.2148 131.927 16.9642 131.075 16.4629C130.223 15.9616 129.568 15.2419 129.109 14.3037C128.651 13.3656 128.422 12.277 128.422 11.0381C128.422 9.11165 128.916 7.60775 129.904 6.52637C130.893 5.44499 132.285 4.9043 134.083 4.9043C135.802 4.9043 137.162 5.45931 138.165 6.56934C139.168 7.6722 139.669 9.16178 139.669 11.0381ZM131.021 11.0381C131.021 13.7809 132.035 15.1523 134.062 15.1523C136.067 15.1523 137.069 13.7809 137.069 11.0381C137.069 8.32389 136.06 6.9668 134.04 6.9668C132.98 6.9668 132.21 7.31771 131.73 8.01953C131.258 8.72135 131.021 9.72754 131.021 11.0381Z" fill="black"/>
</svg>
