<svg width="127" height="17" viewBox="0 0 127 17" fill="none" xmlns="http://www.w3.org/2000/svg">
<path d="M14.0391 16V9.03711C14.0391 8.00195 13.8372 7.24674 13.4336 6.77148C13.0299 6.29622 12.4115 6.05859 11.5781 6.05859C10.4909 6.05859 9.68685 6.35807 9.16602 6.95703C8.64518 7.55599 8.38477 8.49674 8.38477 9.7793V16H7.39844V8.74414C7.39844 6.95378 6.57812 6.05859 4.9375 6.05859C3.82422 6.05859 3.01367 6.38411 2.50586 7.03516C1.99805 7.67969 1.74414 8.71484 1.74414 10.1406V16H0.777344V5.38477H1.57812L1.7832 6.83984H1.8418C2.13477 6.3125 2.55143 5.9056 3.0918 5.61914C3.63216 5.32617 4.22786 5.17969 4.87891 5.17969C6.55208 5.17969 7.6263 5.80794 8.10156 7.06445H8.14062C8.48568 6.45898 8.94792 5.99349 9.52734 5.66797C10.1133 5.34245 10.7773 5.17969 11.5195 5.17969C12.6784 5.17969 13.5475 5.48893 14.127 6.10742C14.7064 6.72591 14.9961 7.70898 14.9961 9.05664V16H14.0391ZM19.4004 16H18.4336V5.38477H19.4004V16ZM18.2969 2.43555C18.2969 1.81055 18.502 1.49805 18.9121 1.49805C19.1139 1.49805 19.2702 1.57943 19.3809 1.74219C19.498 1.90495 19.5566 2.13607 19.5566 2.43555C19.5566 2.72852 19.498 2.95964 19.3809 3.12891C19.2702 3.29818 19.1139 3.38281 18.9121 3.38281C18.502 3.38281 18.2969 3.06706 18.2969 2.43555ZM23.9121 11.3418L29.332 5.38477H30.5039L26.3242 9.91602L30.8652 16H29.7031L25.6699 10.6387L23.9316 12.2207V16H22.9648V0.804688H23.9316V8.42188L23.8633 11.3418H23.9121ZM39.0977 16L38.8535 14.3203H38.7754C38.2415 15.0039 37.6914 15.4889 37.125 15.7754C36.5651 16.0553 35.901 16.1953 35.1328 16.1953C34.0911 16.1953 33.2806 15.9284 32.7012 15.3945C32.1217 14.8607 31.832 14.1217 31.832 13.1777C31.832 12.1426 32.2617 11.3385 33.1211 10.7656C33.987 10.1927 35.237 9.88997 36.8711 9.85742L38.8926 9.79883V9.0957C38.8926 8.08659 38.6875 7.32487 38.2773 6.81055C37.8672 6.29622 37.2064 6.03906 36.2949 6.03906C35.3118 6.03906 34.293 6.3125 33.2383 6.85938L32.877 6.01953C34.0423 5.47266 35.1947 5.19922 36.334 5.19922C37.4993 5.19922 38.3685 5.50195 38.9414 6.10742C39.5208 6.71289 39.8105 7.6569 39.8105 8.93945V16H39.0977ZM35.1914 15.3164C36.3242 15.3164 37.2161 14.9941 37.8672 14.3496C38.5247 13.6986 38.8535 12.7969 38.8535 11.6445V10.5996L36.998 10.6777C35.5072 10.7493 34.4427 10.9837 33.8047 11.3809C33.1732 11.7715 32.8574 12.3835 32.8574 13.2168C32.8574 13.8809 33.0592 14.3984 33.4629 14.7695C33.873 15.1341 34.4492 15.3164 35.1914 15.3164ZM47.5449 16.1953C46.002 16.1953 44.7975 15.7201 43.9316 14.7695C43.0723 13.819 42.6426 12.4876 42.6426 10.7754C42.6426 9.08268 43.0592 7.72852 43.8926 6.71289C44.7259 5.69076 45.849 5.17969 47.2617 5.17969C48.5117 5.17969 49.498 5.61589 50.2207 6.48828C50.9434 7.36068 51.3047 8.54557 51.3047 10.043V10.8242H43.6582C43.6712 12.2826 44.0098 13.3958 44.6738 14.1641C45.3444 14.9323 46.3014 15.3164 47.5449 15.3164C48.1504 15.3164 48.681 15.2741 49.1367 15.1895C49.599 15.1048 50.1816 14.9225 50.8848 14.6426V15.5215C50.2858 15.7819 49.7324 15.9577 49.2246 16.0488C48.7168 16.1465 48.1569 16.1953 47.5449 16.1953ZM47.2617 6.03906C46.2396 6.03906 45.4193 6.3776 44.8008 7.05469C44.1823 7.72526 43.821 8.69531 43.7168 9.96484H50.2793C50.2793 8.73438 50.0124 7.77409 49.4785 7.08398C48.9447 6.38737 48.2057 6.03906 47.2617 6.03906ZM55.2012 16H54.2344V0.804688H55.2012V16ZM65.8848 12.9238C65.8848 13.9785 65.5007 14.7891 64.7324 15.3555C63.9642 15.9154 62.8639 16.1953 61.4316 16.1953C59.9928 16.1953 58.8372 15.9772 57.9648 15.541V13.5586C59.2344 14.1445 60.416 14.4375 61.5098 14.4375C62.9225 14.4375 63.6289 14.0111 63.6289 13.1582C63.6289 12.8848 63.5508 12.6569 63.3945 12.4746C63.2383 12.2923 62.9811 12.1035 62.623 11.9082C62.265 11.7129 61.7669 11.4915 61.1289 11.2441C59.8854 10.7624 59.0423 10.2806 58.5996 9.79883C58.1634 9.31706 57.9453 8.69206 57.9453 7.92383C57.9453 6.99935 58.3164 6.2832 59.0586 5.77539C59.8073 5.26107 60.8229 5.00391 62.1055 5.00391C63.375 5.00391 64.5762 5.26107 65.709 5.77539L64.9668 7.50391C63.8014 7.02214 62.8216 6.78125 62.0273 6.78125C60.8164 6.78125 60.2109 7.1263 60.2109 7.81641C60.2109 8.15495 60.3672 8.44141 60.6797 8.67578C60.9987 8.91016 61.6888 9.23242 62.75 9.64258C63.6419 9.98763 64.2897 10.3034 64.6934 10.5898C65.097 10.8763 65.3965 11.2083 65.5918 11.5859C65.7871 11.957 65.8848 12.403 65.8848 12.9238ZM75.1328 16L74.6738 14.4961H74.5957C74.0749 15.1536 73.5508 15.6029 73.0234 15.8438C72.4961 16.0781 71.819 16.1953 70.9922 16.1953C69.931 16.1953 69.1009 15.9089 68.502 15.3359C67.9095 14.763 67.6133 13.9525 67.6133 12.9043C67.6133 11.791 68.0267 10.9512 68.8535 10.3848C69.6803 9.81836 70.9401 9.50911 72.6328 9.45703L74.498 9.39844V8.82227C74.498 8.13216 74.3353 7.61784 74.0098 7.2793C73.6908 6.93424 73.1927 6.76172 72.5156 6.76172C71.9622 6.76172 71.4316 6.8431 70.9238 7.00586C70.416 7.16862 69.9277 7.36068 69.459 7.58203L68.7168 5.94141C69.3027 5.63542 69.944 5.4043 70.6406 5.24805C71.3372 5.08529 71.9948 5.00391 72.6133 5.00391C73.987 5.00391 75.0221 5.30339 75.7188 5.90234C76.4219 6.5013 76.7734 7.44206 76.7734 8.72461V16H75.1328ZM71.7148 14.4375C72.5482 14.4375 73.2155 14.2064 73.7168 13.7441C74.2246 13.2754 74.4785 12.6211 74.4785 11.7812V10.8438L73.0918 10.9023C72.0111 10.9414 71.2233 11.1237 70.7285 11.4492C70.2402 11.7682 69.9961 12.2598 69.9961 12.9238C69.9961 13.4056 70.1393 13.7799 70.4258 14.0469C70.7122 14.3073 71.1419 14.4375 71.7148 14.4375ZM89.4785 16H87.1738V9.35938C87.1738 8.52604 87.0046 7.9043 86.666 7.49414C86.334 7.08398 85.8034 6.87891 85.0742 6.87891C84.1042 6.87891 83.3945 7.16536 82.9453 7.73828C82.4961 8.3112 82.2715 9.27148 82.2715 10.6191V16H79.9766V5.19922H81.7734L82.0957 6.61523H82.2129C82.5384 6.10091 83.0007 5.70378 83.5996 5.42383C84.1986 5.14388 84.8626 5.00391 85.5918 5.00391C88.1829 5.00391 89.4785 6.32227 89.4785 8.95898V16ZM96.6953 14.3398C97.2552 14.3398 97.8151 14.252 98.375 14.0762V15.8047C98.1211 15.9154 97.7923 16.0065 97.3887 16.0781C96.9915 16.1562 96.5781 16.1953 96.1484 16.1953C93.974 16.1953 92.8867 15.0495 92.8867 12.7578V6.9375H91.4121V5.92188L92.9941 5.08203L93.7754 2.79688H95.1914V5.19922H98.2676V6.9375H95.1914V12.7188C95.1914 13.2721 95.3281 13.6823 95.6016 13.9492C95.8815 14.2096 96.2461 14.3398 96.6953 14.3398ZM102.838 16H100.543V5.19922H102.838V16ZM100.406 2.33789C100.406 1.92773 100.517 1.61198 100.738 1.39062C100.966 1.16927 101.288 1.05859 101.705 1.05859C102.109 1.05859 102.421 1.16927 102.643 1.39062C102.87 1.61198 102.984 1.92773 102.984 2.33789C102.984 2.72852 102.87 3.03776 102.643 3.26562C102.421 3.48698 102.109 3.59766 101.705 3.59766C101.288 3.59766 100.966 3.48698 100.738 3.26562C100.517 3.03776 100.406 2.72852 100.406 2.33789ZM108.424 16H106.129V0.804688H108.424V16ZM114.01 16H111.715V5.19922H114.01V16ZM111.578 2.33789C111.578 1.92773 111.689 1.61198 111.91 1.39062C112.138 1.16927 112.46 1.05859 112.877 1.05859C113.281 1.05859 113.593 1.16927 113.814 1.39062C114.042 1.61198 114.156 1.92773 114.156 2.33789C114.156 2.72852 114.042 3.03776 113.814 3.26562C113.593 3.48698 113.281 3.59766 112.877 3.59766C112.46 3.59766 112.138 3.48698 111.91 3.26562C111.689 3.03776 111.578 2.72852 111.578 2.33789ZM126.881 10.5801C126.881 12.3444 126.428 13.7214 125.523 14.7109C124.618 15.7005 123.359 16.1953 121.744 16.1953C120.735 16.1953 119.843 15.9674 119.068 15.5117C118.294 15.056 117.698 14.4017 117.281 13.5488C116.865 12.696 116.656 11.7064 116.656 10.5801C116.656 8.82878 117.105 7.46159 118.004 6.47852C118.902 5.49544 120.169 5.00391 121.803 5.00391C123.365 5.00391 124.602 5.50846 125.514 6.51758C126.425 7.52018 126.881 8.87435 126.881 10.5801ZM119.02 10.5801C119.02 13.0736 119.941 14.3203 121.783 14.3203C123.606 14.3203 124.518 13.0736 124.518 10.5801C124.518 8.11263 123.6 6.87891 121.764 6.87891C120.8 6.87891 120.1 7.19792 119.664 7.83594C119.234 8.47396 119.02 9.38867 119.02 10.5801Z" fill="#4E67EB"/>
</svg>
